# xmcd
#
# Track frame offsets: 
#        150
#        674
#        16686
#        33490
#        54773
#        71360
#        85771
#        102798
#        121306
#        139148
#        159101
#        176631
#        195507
#        211410
#        225626
#        238713
#        251488
#        266332
#        284434
#        308389
#
# Disc length: 4360 seconds
#
# Revision: 0
# Processed by: cddbd v1.5.2PL0 Copyright (c) Steve Scherf et al.
# Submitted via: ExactAudioCopy v0.99pb4
#
DISCID=f4110614
DTITLE=Various Artist - prevue promo 1042A-1
DYEAR=2000
DGENRE=pop
TTITLE0=blank - data
TTITLE1=Hanson - If Only 
TTITLE2=Bon Jovi 2000 - It's My Life 
TTITLE3=Michael English - Heaven To Earth 
TTITLE4=Bosson - Where Are You 
TTITLE5=N'SYNC - It's Gonna Be Me 
TTITLE6=Backstreet Boys - The One 
TTITLE7=Brian McKnight - 6,8, 12 
TTITLE8=TQ - Daily 
TTITLE9=Miracle - Bounce 
TTITLE10=Big Tymers - Get Your Roll On(lyrics)
TTITLE11=Sisqo Feat.  Foxy Brown  - Thong Song(remix)
TTITLE12=Tom Jones Feat.  Mousse T. - Sexbomb (Lyrics) 
TTITLE13=Kim Richey - The Way It Never Was
TTITLE14=On - Slingshot 
TTITLE15=The Offspring - Totalimmortal 
TTITLE16=Indigenous - Little Time 
TTITLE17=Snake River Conspiracy - Vulcan (lyrics"Clean" radio edit
TTITLE18=Limp Bizkit - Take A Look Around(lyrics) 
TTITLE19=Joseph Arthur - Chemical 
EXTD=
EXTT0=
EXTT1=
EXTT2=
EXTT3=
EXTT4=
EXTT5=
EXTT6=
EXTT7=
EXTT8=
EXTT9=
EXTT10=
EXTT11=
EXTT12=
EXTT13=
EXTT14=
EXTT15=
EXTT16=
EXTT17=
EXTT18=
EXTT19=
PLAYORDER=
